<svg width="300" height="71" viewBox="0 0 300 71" fill="none" xmlns="http://www.w3.org/2000/svg">
<path d="M20.7835 1C26.37 1 29.8839 5.51885 29.9336 11.1053V13.8365V22.3992C29.9336 23.1564 29.3252 23.7647 28.568 23.7647C27.8107 23.7647 25.1285 23.1564 25.1285 22.3992V13.8365L25.1409 12.1642C25.0913 8.09223 24.8802 4.78999 20.7959 4.78999C16.6991 4.78999 16.4881 8.09223 16.4384 12.1642L16.426 13.8365V22.3992C16.426 23.1564 13.7438 23.7647 12.9866 23.7647C12.2293 23.7647 11.621 23.1564 11.621 22.3992V13.8365L11.6334 11.1053C11.683 5.51885 15.197 1 20.7835 1Z" fill="#4DAB04"/>
<path fill-rule="evenodd" clip-rule="evenodd" d="M41.4393 48.0231L38.4598 14.5166C38.3978 13.809 37.8019 13.2751 37.0943 13.2751H30.9119H28.1931H13.2586H10.5274H4.34504C3.63742 13.2751 3.04153 13.8214 2.97946 14.5166L0 48.0231V48.1472C0 51.9212 3.46362 55 7.73418 55H33.7175C37.9757 55 41.4517 51.9336 41.4517 48.1472C41.4517 48.0976 41.4517 48.0603 41.4393 48.0231ZM10.9107 49.0799H30.5411C33.2722 49.0799 34.448 48.3263 34.4604 46.0793L32.6639 19.1828H32.3173H30.9119H28.1807H13.2462H11.5738H8.76296L6.96647 46.0793C7.00371 48.3263 8.17948 49.0799 10.9107 49.0799Z" fill="#4DAB04"/>
<path fill-rule="evenodd" clip-rule="evenodd" d="M23.7336 30.3804C24.6124 29.5016 26.0373 29.5014 26.9161 30.3804C27.795 31.2593 27.7949 32.6842 26.916 33.5631L20.4485 40.0307C20.0092 40.4701 19.4311 40.6902 18.857 40.6902C18.2825 40.6902 17.7048 40.47 17.2657 40.0309L14.2345 36.9997C13.3556 36.1208 13.3556 34.6959 14.2345 33.817C15.1133 32.9382 16.5383 32.9381 17.4171 33.817L18.8571 35.2569L23.7336 30.3804Z" fill="#4DAB04"/>
<path d="M60.4473 52.048V3.73599C60.4473 2.87199 60.8553 2.17599 61.6713 1.64799C62.5353 1.11999 63.6393 0.855988 64.9833 0.855988C66.3273 0.855988 67.4553 1.11999 68.3673 1.64799C69.2793 2.17599 69.7353 2.87199 69.7353 3.73599V25.84C70.5513 24.304 71.7513 23.008 73.3353 21.952C74.9673 20.896 76.8393 20.368 78.9513 20.368C82.4553 20.368 85.4553 21.808 87.9513 24.688C90.4953 27.568 91.7673 31 91.7673 34.984V40.888C91.7673 44.776 90.4953 48.208 87.9513 51.184C85.4073 54.16 82.4793 55.648 79.1673 55.648C77.0073 55.648 74.9913 55.096 73.1193 53.992C71.2473 52.84 69.9273 51.496 69.1593 49.96V52.048C69.1593 52.768 68.7273 53.44 67.8633 54.064C67.0473 54.688 66.0873 55 64.9833 55C63.6873 55 62.6073 54.712 61.7433 54.136C60.8793 53.512 60.4473 52.816 60.4473 52.048ZM69.7353 42.184C69.7353 43.096 70.3833 44.224 71.6793 45.568C73.0233 46.864 74.5353 47.512 76.2153 47.512C77.8953 47.512 79.3593 46.84 80.6073 45.496C81.8553 44.104 82.4793 42.568 82.4793 40.888V34.984C82.4793 33.304 81.8553 31.816 80.6073 30.52C79.3593 29.176 77.8713 28.504 76.1433 28.504C74.5113 28.504 73.0233 29.104 71.6793 30.304C70.3833 31.504 69.7353 33.064 69.7353 34.984V42.184Z" fill="#4DAB04"/>
<path d="M95.6953 46.072C95.6953 42.184 97.1353 39.448 100.015 37.864C102.895 36.28 107.047 35.488 112.471 35.488H115.423V34.552C115.423 32.776 114.895 31.24 113.839 29.944C112.831 28.6 111.247 27.928 109.087 27.928C106.927 27.928 105.079 28.312 103.543 29.08C102.007 29.8 101.119 30.16 100.879 30.16C99.9193 30.16 99.1513 29.68 98.5753 28.72C97.9993 27.76 97.7113 26.704 97.7113 25.552C97.7113 24.16 98.9353 22.96 101.383 21.952C103.879 20.896 106.495 20.368 109.231 20.368C114.463 20.368 118.351 21.712 120.895 24.4C123.439 27.04 124.711 30.376 124.711 34.408V52.048C124.711 52.864 124.279 53.56 123.415 54.136C122.551 54.712 121.471 55 120.175 55C118.975 55 117.967 54.712 117.151 54.136C116.383 53.56 115.999 52.864 115.999 52.048V49.96C112.687 53.752 109.039 55.648 105.055 55.648C102.319 55.648 100.063 54.832 98.2873 53.2C96.5593 51.568 95.6953 49.192 95.6953 46.072ZM104.983 44.848C104.983 46.144 105.319 47.128 105.991 47.8C106.711 48.424 107.647 48.736 108.799 48.736C110.335 48.736 111.823 48.016 113.263 46.576C114.703 45.136 115.423 43.552 115.423 41.824V40.312H114.343C111.415 40.312 109.111 40.624 107.431 41.248C105.799 41.824 104.983 43.024 104.983 44.848Z" fill="#4DAB04"/>
<path d="M129.514 51.688C129.514 50.44 130.042 49.192 131.098 47.944L145.282 28.36H132.826C132.058 28.36 131.41 28 130.882 27.28C130.354 26.512 130.09 25.6 130.09 24.544C130.09 23.488 130.33 22.6 130.81 21.88C131.338 21.16 132.01 20.8 132.826 20.8H153.994C154.858 20.8 155.578 21.088 156.154 21.664C156.73 22.192 157.018 22.96 157.018 23.968C157.018 25.312 156.538 26.608 155.578 27.856L141.322 47.44H155.434C156.202 47.44 156.85 47.824 157.378 48.592C157.906 49.312 158.17 50.2 158.17 51.256C158.17 52.312 157.906 53.2 157.378 53.92C156.898 54.64 156.25 55 155.434 55H132.682C131.626 55 130.834 54.688 130.306 54.064C129.778 53.392 129.514 52.6 129.514 51.688Z" fill="#4DAB04"/>
<path d="M161.016 46.072C161.016 42.184 162.456 39.448 165.336 37.864C168.216 36.28 172.368 35.488 177.792 35.488H180.744V34.552C180.744 32.776 180.216 31.24 179.16 29.944C178.152 28.6 176.568 27.928 174.408 27.928C172.248 27.928 170.4 28.312 168.864 29.08C167.328 29.8 166.44 30.16 166.2 30.16C165.24 30.16 164.472 29.68 163.896 28.72C163.32 27.76 163.032 26.704 163.032 25.552C163.032 24.16 164.256 22.96 166.704 21.952C169.2 20.896 171.816 20.368 174.552 20.368C179.784 20.368 183.672 21.712 186.216 24.4C188.76 27.04 190.032 30.376 190.032 34.408V52.048C190.032 52.864 189.6 53.56 188.736 54.136C187.872 54.712 186.792 55 185.496 55C184.296 55 183.288 54.712 182.472 54.136C181.704 53.56 181.32 52.864 181.32 52.048V49.96C178.008 53.752 174.36 55.648 170.376 55.648C167.64 55.648 165.384 54.832 163.608 53.2C161.88 51.568 161.016 49.192 161.016 46.072ZM170.304 44.848C170.304 46.144 170.64 47.128 171.312 47.8C172.032 48.424 172.968 48.736 174.12 48.736C175.656 48.736 177.144 48.016 178.584 46.576C180.024 45.136 180.744 43.552 180.744 41.824V40.312H179.664C176.736 40.312 174.432 40.624 172.752 41.248C171.12 41.824 170.304 43.024 170.304 44.848Z" fill="#4DAB04"/>
<path d="M196.922 52.048V23.68C196.922 22.816 197.33 22.12 198.146 21.592C199.01 21.064 200.114 20.8 201.458 20.8C202.658 20.8 203.642 21.064 204.41 21.592C205.226 22.12 205.634 22.816 205.634 23.68V26.632C206.402 24.952 207.602 23.488 209.234 22.24C210.866 20.992 212.618 20.368 214.49 20.368H216.722C217.586 20.368 218.354 20.776 219.026 21.592C219.746 22.408 220.106 23.344 220.106 24.4C220.106 25.504 219.746 26.464 219.026 27.28C218.354 28.096 217.586 28.504 216.722 28.504H214.49C212.282 28.504 210.338 29.488 208.658 31.456C207.026 33.424 206.21 35.992 206.21 39.16V52.048C206.21 52.768 205.73 53.44 204.77 54.064C203.81 54.688 202.706 55 201.458 55C200.162 55 199.082 54.712 198.218 54.136C197.354 53.512 196.922 52.816 196.922 52.048Z" fill="#4DAB04"/>
<path d="M220.542 53.992C219.63 53.032 219.174 51.88 219.174 50.536C219.174 49.192 219.63 48.04 220.542 47.08C221.502 46.12 222.678 45.64 224.07 45.64C225.366 45.64 226.494 46.12 227.454 47.08C228.414 48.04 228.894 49.192 228.894 50.536C228.894 51.832 228.414 52.984 227.454 53.992C226.494 54.952 225.366 55.432 224.07 55.432C222.678 55.432 221.502 54.952 220.542 53.992Z" fill="#4DAB04"/>
<path d="M234.611 52.048V3.73599C234.611 2.87199 235.019 2.17599 235.835 1.64799C236.699 1.11999 237.803 0.855988 239.147 0.855988C240.491 0.855988 241.619 1.11999 242.531 1.64799C243.443 2.17599 243.899 2.87199 243.899 3.73599V33.904L257.435 21.16C258.011 20.68 258.635 20.44 259.307 20.44C260.315 20.44 261.323 20.92 262.331 21.88C263.339 22.84 263.843 23.848 263.843 24.904C263.843 25.528 263.579 26.104 263.051 26.632L254.555 34.336L265.139 49.456C265.475 49.936 265.643 50.44 265.643 50.968C265.643 52.024 265.043 53.056 263.843 54.064C262.691 55.072 261.539 55.576 260.387 55.576C259.427 55.576 258.659 55.168 258.083 54.352L248.363 40.024L243.899 44.128V52.048C243.899 52.768 243.419 53.44 242.459 54.064C241.499 54.688 240.395 55 239.147 55C237.851 55 236.771 54.712 235.907 54.136C235.043 53.512 234.611 52.816 234.611 52.048Z" fill="#4DAB04"/>
<path d="M267.457 60.76C267.457 57.448 269.209 54.904 272.713 53.128C270.697 52.168 269.689 50.632 269.689 48.52C269.689 46.408 270.913 44.536 273.361 42.904C270.385 40.6 268.897 37.552 268.897 33.76V32.248C268.897 28.744 270.193 25.888 272.785 23.68C275.377 21.472 278.761 20.368 282.937 20.368C286.105 20.368 288.841 21.064 291.145 22.456C292.585 19.192 294.049 17.56 295.537 17.56C296.641 17.56 297.529 17.872 298.201 18.496C298.873 19.12 299.209 19.768 299.209 20.44C299.209 21.208 298.825 21.88 298.057 22.456C296.281 23.704 295.153 24.616 294.673 25.192C296.353 27.16 297.193 29.512 297.193 32.248V33.76C297.193 37.216 295.849 40.096 293.161 42.4C290.521 44.656 287.113 45.784 282.937 45.784C281.209 45.784 279.649 45.568 278.257 45.136C277.681 45.616 277.393 46.096 277.393 46.576C277.393 47.392 278.137 47.992 279.625 48.376C281.113 48.76 282.913 49.096 285.025 49.384C287.185 49.624 289.321 50.008 291.433 50.536C293.545 51.016 295.345 52.024 296.833 53.56C298.321 55.096 299.065 57.112 299.065 59.608C299.065 63.352 297.553 66.16 294.529 68.032C291.505 69.952 287.785 70.912 283.369 70.912C278.905 70.912 275.137 70 272.065 68.176C268.993 66.352 267.457 63.88 267.457 60.76ZM276.241 59.824C276.241 61.408 276.913 62.656 278.257 63.568C279.601 64.48 281.257 64.936 283.225 64.936C285.193 64.936 286.825 64.48 288.121 63.568C289.417 62.656 290.065 61.432 290.065 59.896C290.065 59.224 289.945 58.624 289.705 58.096C289.465 57.616 289.033 57.208 288.409 56.872C287.833 56.536 287.305 56.248 286.825 56.008C286.393 55.816 285.673 55.624 284.665 55.432C283.657 55.288 282.913 55.192 282.433 55.144C282.001 55.096 281.233 55 280.129 54.856C277.537 56.056 276.241 57.712 276.241 59.824ZM277.897 33.688C277.897 35.56 278.353 37.12 279.265 38.368C280.177 39.568 281.449 40.168 283.081 40.168C284.665 40.168 285.913 39.592 286.825 38.44C287.737 37.24 288.193 35.68 288.193 33.76V32.248C288.193 30.472 287.713 28.984 286.753 27.784C285.841 26.584 284.593 25.984 283.009 25.984C281.425 25.984 280.177 26.584 279.265 27.784C278.353 28.936 277.897 30.424 277.897 32.248V33.688Z" fill="#4DAB04"/>
</svg>
