<svg width="1302" height="202" viewBox="0 0 1302 202" fill="none" xmlns="http://www.w3.org/2000/svg">
<path d="M186.23 138.976H134.255V152.478H181.388L186.23 138.976ZM239.535 138.976H193.175L188.333 152.478H239.535V138.976ZM72.938 138.974H47.295C35.499 139.351 30.479 132.404 31.305 125.277C31.305 106.74 49.657 77.207 74.06 79.547L93.314 79.515C99.296 78.885 104.627 77.242 108.884 73.905L112.164 71.153C120.03 63.8 150.4 32.278 158.707 30.98H209.145L213.985 17.478H157.505C142.495 18.676 114.607 49.931 102.685 61.04C96.61 66.7 98.545 66 90.267 66H70.395C36.335 68.612 17.175 104.21 17.171 129.225C19.681 146.1 33.504 152.61 42.153 152.479H72.939V138.973L72.938 138.974ZM298.6 138.974H325.608C342.225 139.949 352.403 104.312 353.465 93.401C352.185 86.101 351.953 79.321 342.938 79.548L308.52 79.515C302.54 78.887 297.208 77.242 292.95 73.905L289.672 71.153C281.805 63.799 251.434 32.278 243.127 30.981H216.553L221.395 17.478H244.332C259.34 18.676 287.229 49.931 299.152 61.04C305.224 66.698 303.292 66 311.57 66H348C360.795 66.584 366.516 78.138 366.87 86.91C365.328 105.208 355.477 152.895 327.96 152.477H298.602V138.973H298.6V138.974Z" fill="#008AC9" stroke="#008AC9" stroke-width="8" stroke-miterlimit="10"/>
<path d="M302.467 138.974C302.467 159.361 285.942 175.886 265.555 175.886C245.172 175.886 228.645 159.361 228.645 138.974H241.083C241.083 152.492 252.04 163.449 265.556 163.449C279.074 163.449 290.031 152.491 290.031 138.973H302.468L302.467 138.974Z" fill="#008AC9" stroke="#008AC9" stroke-width="8" stroke-miterlimit="10"/>
<path d="M302.467 138.976C302.467 118.588 285.942 102.064 265.555 102.064C245.172 102.064 228.645 118.588 228.645 138.976H241.083C241.083 125.456 252.04 114.5 265.556 114.5C279.074 114.5 290.031 125.457 290.031 138.976H302.468H302.467ZM143.37 138.974C143.37 159.361 126.844 175.886 106.458 175.886C86.072 175.886 69.548 159.361 69.548 138.974H81.984C81.984 152.492 92.942 163.449 106.459 163.449C119.974 163.449 130.932 152.491 130.932 138.973H143.368L143.37 138.974Z" fill="#008AC9" stroke="#008AC9" stroke-width="8" stroke-miterlimit="10"/>
<path d="M143.37 138.976C143.37 118.588 126.844 102.064 106.458 102.064C86.072 102.064 69.548 118.588 69.548 138.976H81.984C81.984 125.456 92.942 114.5 106.459 114.5C119.974 114.5 130.932 125.457 130.932 138.976H143.368H143.37Z" fill="#008AC9" stroke="#008AC9" stroke-width="8" stroke-miterlimit="10"/>
<path d="M434.165 146.328L447.197 72.402C447.594 70.152 449.007 68.339 451.44 66.962C453.87 65.587 456.9 64.897 460.53 64.897C463.53 64.897 465.942 65.592 467.76 66.982C469.58 68.372 470.288 70.204 469.887 72.477L468.887 78.157C475.953 68.569 485.055 63.773 496.189 63.773C501.442 63.773 505.855 65.509 509.436 68.98C513.014 72.45 515.304 77.025 516.306 82.703C520.52 76.52 525.448 71.821 531.08 68.603C536.715 65.383 542.346 63.773 547.975 63.773C556.981 63.773 564.19 67.215 569.61 74.093C575.026 80.973 576.71 90.229 574.66 101.863L566.82 146.33C566.49 148.206 564.96 149.96 562.235 151.584C559.509 153.211 556.52 154.024 553.268 154.024C550.14 154.024 547.5 153.214 545.348 151.59C543.194 149.968 542.283 148.22 542.612 146.35L550.429 102.003C551.351 96.763 550.582 92.615 548.119 89.561C545.655 86.506 542.359 84.977 538.232 84.977C534.227 84.977 530.486 86.507 527.01 89.562C523.532 92.62 521.343 96.708 520.44 101.82L512.558 146.54C512.118 149.04 510.598 150.91 508.003 152.154C505.405 153.404 502.42 154.024 499.043 154.024C495.915 154.024 493.248 153.371 491.04 152.061C488.832 150.751 487.936 148.911 488.354 146.539L496.204 102.004C497.084 97.014 496.266 92.962 493.752 89.844C491.235 86.724 487.916 85.164 483.788 85.164C479.783 85.164 476.08 86.662 472.676 89.654C469.269 92.652 467.106 96.768 466.184 102.004L458.367 146.352C458.037 148.226 456.51 149.974 453.784 151.595C451.059 153.217 448.07 154.025 444.819 154.025C441.441 154.025 438.732 153.245 436.694 151.679C434.652 150.115 433.811 148.333 434.164 146.329L434.165 146.328ZM582.458 129.984C584.194 120.137 589.168 113.206 597.381 109.192C605.594 105.182 616.766 103.172 630.903 103.172H638.595L639.037 100.662C639.877 95.904 639.261 91.756 637.197 88.218C635.13 84.678 631.284 82.908 625.655 82.908C620.026 82.908 615.022 83.971 610.645 86.098C606.265 88.226 603.765 89.288 603.142 89.288C600.639 89.288 598.86 88.038 597.8 85.535C596.74 83.035 596.474 80.282 597.004 77.28C597.644 73.654 601.419 70.496 608.337 67.805C615.252 65.115 622.277 63.771 629.407 63.771C643.037 63.771 652.557 67.243 657.967 74.186C663.371 81.126 665.149 89.853 663.297 100.36L655.193 146.328C654.819 148.456 653.373 150.268 650.858 151.768C648.342 153.27 645.395 154.02 642.018 154.02C638.89 154.02 636.436 153.22 634.656 151.613C632.876 150.01 632.184 148.073 632.586 145.797L633.611 139.981C623.131 150.468 612.699 155.711 602.318 155.711C595.188 155.711 589.726 153.521 585.934 149.135C582.139 144.752 580.984 138.37 582.462 129.985L582.458 129.984ZM607.195 126.958C606.63 130.165 607.112 132.568 608.645 134.17C610.175 135.77 612.443 136.57 615.445 136.57C619.447 136.57 623.639 134.792 628.019 131.232C632.399 127.672 634.965 123.756 635.719 119.482L636.377 115.744H633.563C625.933 115.744 619.829 116.486 615.253 117.97C610.675 119.453 607.989 122.45 607.193 126.958H607.195ZM668.764 139.573C669.161 137.323 670.394 134.977 672.474 132.537C674.547 130.097 676.662 128.879 678.814 128.879C680.204 128.879 681.834 129.505 683.704 130.759C685.569 132.015 688.097 133.296 691.284 134.606C694.472 135.916 698.404 136.571 703.09 136.571C712.33 136.571 717.412 133.956 718.335 128.721C718.85 125.801 717.723 123.491 714.96 121.786C712.194 120.083 708.752 118.684 704.63 117.586C700.453 116.476 696.332 115.168 692.28 113.666C688.17 112.144 684.9 109.586 682.47 105.998C680.035 102.408 679.315 97.815 680.302 92.216C681.672 84.452 685.537 77.771 691.902 72.172C698.267 66.572 707.269 63.77 718.902 63.77C726.656 63.77 733.357 64.96 739.006 67.335C744.652 69.712 747.18 72.589 746.586 75.965C746.21 78.093 744.93 80.562 742.746 83.377C740.561 86.19 738.216 87.597 735.716 87.597C734.713 87.597 732.131 86.817 727.966 85.252C723.801 83.689 719.779 82.906 715.904 82.906C711.65 82.906 708.248 83.758 705.696 85.461C703.144 87.164 701.686 89.049 701.321 91.121C700.957 93.191 701.783 94.893 703.799 96.231C705.814 97.569 708.414 98.605 711.601 99.334C714.785 100.064 718.167 101.067 721.741 102.344C725.316 103.624 728.581 105.114 731.529 106.816C734.476 108.522 736.739 111.17 738.314 114.758C739.886 118.346 740.224 122.698 739.324 127.808C737.797 136.47 733.561 143.286 726.62 148.253C719.675 153.223 710.764 155.706 699.88 155.706C690.5 155.706 682.78 154.079 676.725 150.826C670.665 147.576 668.015 143.824 668.765 139.569L668.764 139.573ZM751.064 146.337L773.228 20.607C773.624 18.359 775.038 16.547 777.468 15.173C779.898 13.801 782.928 13.113 786.558 13.113C789.934 13.113 792.688 13.801 794.825 15.176C796.957 16.551 797.828 18.363 797.432 20.612L787.287 78.158C789.875 74.122 793.477 70.715 798.095 67.938C802.713 65.161 807.835 63.773 813.465 63.773C822.095 63.773 828.969 67.525 834.09 75.031C839.208 82.537 840.854 91.481 839.024 101.863L831.184 146.331C830.766 148.708 829.214 150.585 826.534 151.961C823.852 153.338 820.884 154.024 817.634 154.024C814.504 154.024 811.844 153.338 809.647 151.966C807.449 150.594 806.56 148.723 806.977 146.352L814.795 102.005C815.543 97.765 814.597 93.899 811.962 90.405C809.322 86.912 805.817 85.165 801.44 85.165C797.313 85.165 793.44 86.725 789.827 89.845C786.21 92.965 783.967 97.015 783.087 102.005L775.269 146.353C774.939 148.227 773.409 149.975 770.685 151.596C767.961 153.217 764.971 154.026 761.719 154.026C758.342 154.026 755.633 153.246 753.595 151.683C751.552 150.123 750.711 148.339 751.063 146.34L751.064 146.337ZM850.13 146.328L863.163 72.402C863.56 70.152 864.961 68.339 867.367 66.962C869.773 65.587 872.662 64.897 876.027 64.897C879.394 64.897 882.07 65.587 884.051 66.962C886.031 68.339 886.827 70.152 886.431 72.402L873.398 146.328C873.068 148.204 871.586 149.958 868.954 151.582C866.322 153.209 863.444 154.022 860.318 154.022C857.07 154.022 854.472 153.242 852.526 151.675C850.576 150.113 849.779 148.331 850.132 146.328H850.13ZM867.625 34.313C868.145 31.37 869.915 28.853 872.945 26.758C875.969 24.664 879.429 23.618 883.321 23.618C886.814 23.618 889.611 24.664 891.711 26.758C893.811 28.851 894.601 31.368 894.081 34.313C893.581 37.146 891.911 39.633 889.063 41.783C886.215 43.935 883.043 45.008 879.553 45.008C875.659 45.008 872.573 43.935 870.297 41.783C868.017 39.635 867.127 37.146 867.627 34.313H867.625ZM892.158 146.328L905.19 72.402C905.587 70.152 907 68.339 909.432 66.962C911.862 65.587 914.892 64.897 918.522 64.897C921.522 64.897 923.934 65.592 925.752 66.982C927.572 68.372 928.282 70.204 927.88 72.477L926.88 78.157C929.59 74.122 933.41 70.715 938.342 67.939C943.272 65.162 948.675 63.772 954.556 63.772C963.186 63.772 970.06 67.524 975.181 75.03C980.301 82.536 981.946 91.48 980.116 101.862L972.276 146.33C971.858 148.707 970.306 150.584 967.626 151.96C964.944 153.337 961.976 154.023 958.726 154.023C955.596 154.023 952.936 153.337 950.739 151.965C948.542 150.593 947.652 148.722 948.069 146.351L955.887 102.004C956.657 97.638 955.717 93.74 953.071 90.309C950.421 86.879 946.911 85.164 942.533 85.164C938.405 85.164 934.533 86.724 930.919 89.844C927.302 92.964 925.059 97.014 924.179 102.004L916.361 146.352C916.031 148.226 914.503 149.974 911.778 151.595C909.053 153.217 906.064 154.025 902.813 154.025C899.436 154.025 896.727 153.245 894.689 151.679C892.647 150.115 891.806 148.333 892.159 146.329L892.158 146.328ZM987.916 129.984C989.652 120.137 994.626 113.206 1002.84 109.192C1011.05 105.182 1022.22 103.172 1036.36 103.172H1044.05L1044.49 100.662C1045.33 95.904 1044.72 91.756 1042.65 88.218C1040.58 84.678 1036.74 82.908 1031.11 82.908C1025.49 82.908 1020.48 83.971 1016.1 86.098C1011.72 88.226 1009.22 89.288 1008.6 89.288C1006.09 89.288 1004.31 88.038 1003.25 85.535C1002.19 83.035 1001.93 80.282 1002.46 77.28C1003.1 73.654 1006.87 70.496 1013.79 67.805C1020.71 65.115 1027.73 63.771 1034.86 63.771C1048.49 63.771 1058.01 67.243 1063.42 74.186C1068.82 81.126 1070.6 89.853 1068.75 100.36L1060.65 146.328C1060.27 148.456 1058.82 150.268 1056.31 151.768C1053.79 153.27 1050.85 154.02 1047.47 154.02C1044.34 154.02 1041.89 153.22 1040.11 151.613C1038.33 150.01 1037.64 148.073 1038.04 145.797L1039.06 139.981C1028.58 150.468 1018.15 155.711 1007.77 155.711C1000.64 155.711 995.18 153.521 991.388 149.135C987.594 144.752 986.438 138.37 987.916 129.985V129.984ZM1012.65 126.958C1012.09 130.165 1012.57 132.568 1014.1 134.17C1015.63 135.77 1017.9 136.57 1020.9 136.57C1024.91 136.57 1029.1 134.792 1033.48 131.232C1037.86 127.672 1040.42 123.756 1041.18 119.482L1041.84 115.744H1039.02C1031.39 115.744 1025.29 116.486 1020.71 117.97C1016.13 119.453 1013.45 122.45 1012.65 126.958H1012.65ZM1077.16 151.395C1075.25 148.895 1074.61 145.892 1075.23 142.389C1075.84 138.889 1077.55 135.886 1080.34 133.382C1083.13 130.882 1086.27 129.629 1089.76 129.629C1093.01 129.629 1095.62 130.881 1097.59 133.382C1099.56 135.886 1100.24 138.888 1099.62 142.388C1099.02 145.764 1097.29 148.738 1094.43 151.298C1091.57 153.864 1088.51 155.146 1085.26 155.146C1081.77 155.146 1079.07 153.896 1077.16 151.393V151.395ZM1114.68 146.328L1136.88 20.428C1137.27 18.178 1138.69 16.365 1141.12 14.988C1143.55 13.613 1146.52 12.924 1150.02 12.924C1153.52 12.924 1156.34 13.614 1158.48 14.988C1160.61 16.365 1161.48 18.178 1161.08 20.428L1147.22 99.045L1188.35 65.835C1190.07 64.585 1191.81 63.959 1193.56 63.959C1196.19 63.959 1198.59 65.209 1200.78 67.709C1202.97 70.213 1203.82 72.841 1203.33 75.589C1203.05 77.217 1202.09 78.719 1200.47 80.093L1174.8 100.17L1195.43 139.573C1196.08 140.825 1196.29 142.139 1196.05 143.513C1195.57 146.266 1193.56 148.953 1190.03 151.583C1186.5 154.208 1183.24 155.523 1180.24 155.523C1177.73 155.523 1175.92 154.457 1174.79 152.333L1156.05 114.993L1142.53 125.688L1138.89 146.328C1138.56 148.203 1137 149.958 1134.21 151.581C1131.42 153.209 1128.4 154.021 1125.15 154.021C1121.77 154.021 1119.09 153.241 1117.12 151.675C1115.14 150.115 1114.33 148.332 1114.68 146.329V146.328ZM1196.24 169.032C1197.76 160.4 1203.49 153.772 1213.44 149.142C1208.63 146.642 1206.71 142.64 1207.68 137.134C1208.65 131.631 1212.7 126.754 1219.83 122.5C1213.13 116.495 1210.65 108.553 1212.39 98.67L1213.09 94.73C1214.7 85.6 1219.39 78.157 1227.16 72.402C1234.93 66.65 1244.25 63.772 1255.13 63.772C1263.39 63.772 1270.2 65.587 1275.56 69.212C1280.82 60.708 1285.38 56.454 1289.26 56.454C1292.14 56.454 1294.3 57.269 1295.77 58.894C1297.23 60.52 1297.81 62.209 1297.5 63.959C1297.15 65.959 1295.84 67.709 1293.58 69.212C1288.37 72.465 1285.01 74.842 1283.5 76.342C1286.97 81.472 1288.08 87.599 1286.83 94.729L1286.13 98.669C1284.54 107.675 1279.76 115.151 1271.77 121.089C1263.78 127.032 1254.34 130.002 1243.46 130.002C1238.96 130.002 1234.99 129.44 1231.56 128.314C1229.84 129.564 1228.87 130.817 1228.65 132.066C1228.27 134.194 1229.93 135.756 1233.64 136.756C1237.34 137.759 1241.91 138.602 1247.36 139.289C1252.8 139.977 1258.16 140.977 1263.43 142.289C1268.7 143.603 1272.92 146.263 1276.1 150.265C1279.27 154.265 1280.28 159.52 1279.14 166.025C1277.42 175.782 1272.18 183.13 1263.43 188.072C1254.68 193.012 1244.55 195.484 1233.04 195.484C1221.41 195.484 1212.01 193.104 1204.84 188.354C1197.67 183.601 1194.81 177.16 1196.24 169.031L1196.24 169.032ZM1219.56 166.592C1218.83 170.72 1220.01 173.972 1223.09 176.349C1226.17 178.723 1230.28 179.913 1235.41 179.913C1240.54 179.913 1245 178.723 1248.8 176.348C1252.59 173.968 1254.85 170.78 1255.55 166.778C1255.86 165.025 1255.82 163.494 1255.42 162.181C1255.03 160.868 1254.13 159.771 1252.72 158.898C1251.31 158.021 1250.06 157.302 1248.97 156.74C1247.88 156.178 1246.06 155.676 1243.51 155.24C1240.96 154.8 1239.1 154.517 1237.94 154.394C1236.77 154.268 1234.78 154.019 1231.97 153.644C1224.67 156.769 1220.53 161.084 1219.56 166.591L1219.56 166.592ZM1235.88 98.482C1235.02 103.362 1235.5 107.395 1237.31 110.585C1239.13 113.775 1242.16 115.37 1246.42 115.37C1250.54 115.37 1254.06 113.84 1256.98 110.773C1259.9 107.709 1261.8 103.676 1262.68 98.671L1263.38 94.731C1264.19 90.107 1263.65 86.228 1261.77 83.099C1259.88 79.974 1256.87 78.409 1252.74 78.409C1248.61 78.409 1245.09 79.942 1242.18 83.005C1239.26 86.072 1237.38 89.981 1236.55 94.732L1235.88 98.485L1235.88 98.482Z" fill="#008AC9"/>
</svg>
