<svg width="1176" height="261" viewBox="0 0 1176 261" fill="none" xmlns="http://www.w3.org/2000/svg">
<path d="M298 195.837V28.9486C298 25.964 299.408 23.5598 302.224 21.7359C305.205 19.912 309.097 19 313.901 19C318.373 19 322.182 19.912 325.33 21.7359C328.477 23.5598 330.05 25.964 330.05 28.9486V105.304C332.535 99.9983 336.51 95.5214 341.976 91.8736C347.442 88.2258 353.901 86.4018 361.355 86.4018C372.784 86.4018 382.722 91.3762 391.169 101.325C399.782 111.273 404.088 123.129 404.088 136.891V195.837C404.088 198.987 402.432 201.474 399.119 203.298C395.972 205.122 392.245 206.034 387.939 206.034C383.798 206.034 380.071 205.122 376.759 203.298C373.612 201.474 372.038 198.987 372.038 195.837V136.891C372.038 131.254 369.885 126.113 365.578 121.471C361.272 116.828 356.22 114.507 350.423 114.507C344.957 114.507 340.154 116.579 336.013 120.725C332.038 124.87 330.05 130.259 330.05 136.891V195.837C330.05 198.324 328.394 200.645 325.081 202.801C321.934 204.956 318.207 206.034 313.901 206.034C309.429 206.034 305.619 205.039 302.472 203.049C299.491 200.894 298 198.49 298 195.837Z" fill="white"/>
<path d="M423.57 157.286V136.891C423.57 123.295 428.871 111.522 439.471 101.573C450.072 91.4591 462.743 86.4018 477.484 86.4018C491.894 86.4018 504.482 91.3762 515.248 101.325C526.015 111.273 531.398 123.129 531.398 136.891V157.286C531.398 170.716 526.015 182.572 515.248 192.852C504.482 203.132 491.894 208.272 477.484 208.272C463.074 208.272 450.486 203.132 439.72 192.852C428.953 182.572 423.57 170.716 423.57 157.286ZM455.62 157.286C455.62 163.255 457.774 168.561 462.08 173.203C466.387 177.846 471.521 180.168 477.484 180.168C483.281 180.168 488.333 177.846 492.639 173.203C497.112 168.561 499.348 163.255 499.348 157.286V136.891C499.348 131.254 497.112 126.113 492.639 121.471C488.333 116.828 483.281 114.507 477.484 114.507C471.521 114.507 466.387 116.828 462.08 121.471C457.774 125.948 455.62 131.088 455.62 136.891V157.286Z" fill="white"/>
<path d="M550.54 157.783V98.0915C550.54 95.6043 552.113 93.283 555.261 91.1274C558.573 88.9719 562.383 87.8941 566.689 87.8941C570.83 87.8941 574.474 88.9719 577.621 91.1274C580.934 93.283 582.59 95.6043 582.59 98.0915V157.783C582.59 163.587 584.743 168.81 589.05 173.452C593.356 177.929 598.491 180.168 604.454 180.168C610.416 180.168 615.468 177.929 619.609 173.452C623.916 168.81 626.069 163.587 626.069 157.783V97.8428C626.069 95.1898 627.642 92.8684 630.789 90.8787C634.102 88.889 637.912 87.8941 642.218 87.8941C646.856 87.8941 650.665 88.889 653.647 90.8787C656.628 92.8684 658.119 95.1898 658.119 97.8428V157.783C658.119 171.214 652.819 182.986 642.218 193.101C631.618 203.215 619.029 208.272 604.454 208.272C589.878 208.272 577.207 203.215 566.441 193.101C555.84 182.986 550.54 171.214 550.54 157.783Z" fill="white"/>
<path d="M675.365 186.883C675.365 183.898 676.442 180.831 678.595 177.68C680.748 174.364 683.232 172.706 686.048 172.706C687.87 172.706 690.106 173.618 692.756 175.442C695.572 177.266 699.216 179.173 703.688 181.162C708.16 182.986 713.461 183.898 719.589 183.898C731.68 183.898 737.726 180.333 737.726 173.203C737.726 169.224 735.655 166.074 731.515 163.752C727.539 161.431 722.653 159.524 716.856 158.032C711.225 156.54 705.51 154.799 699.713 152.809C693.916 150.653 688.947 147.171 684.806 142.363C680.831 137.388 678.843 131.088 678.843 123.46C678.843 113.346 682.404 104.641 689.527 97.3453C696.649 90.0497 707.912 86.4018 723.316 86.4018C733.585 86.4018 742.695 87.977 750.645 91.1274C758.761 94.2778 762.819 98.0915 762.819 102.568C762.819 105.387 761.66 108.703 759.341 112.517C757.188 116.165 754.455 117.989 751.142 117.989C749.817 117.989 746.173 116.828 740.21 114.507C734.413 112.02 728.947 110.776 723.813 110.776C718.181 110.776 713.875 111.937 710.893 114.258C707.912 116.579 706.421 119.149 706.421 121.968C706.421 124.787 707.912 127.108 710.893 128.932C713.875 130.756 717.519 132.165 721.825 133.16C726.297 134.155 731.101 135.565 736.235 137.388C741.37 139.047 746.09 141.036 750.397 143.358C754.869 145.679 758.596 149.327 761.577 154.301C764.559 159.11 766.049 164.996 766.049 171.96C766.049 183.235 761.991 192.106 753.875 198.572C745.925 205.039 734.745 208.272 720.334 208.272C707.912 208.272 697.311 206.117 688.533 201.806C679.754 197.495 675.365 192.52 675.365 186.883Z" fill="white"/>
<path d="M780.475 157.286V136.145C780.475 122.548 785.775 110.859 796.376 101.076C806.976 91.2933 819.813 86.4018 834.886 86.4018C848.964 86.4018 860.973 90.8787 870.911 99.8325C881.014 108.62 886.066 119.73 886.066 133.16C886.066 138.135 885.404 142.28 884.079 145.596C882.919 148.746 881.014 150.985 878.364 152.311C875.88 153.638 873.561 154.467 871.408 154.799C869.254 155.13 866.439 155.296 862.96 155.296H812.525V159.027C812.525 166.157 815.175 171.96 820.475 176.437C825.776 180.748 832.815 182.903 841.594 182.903C847.888 182.903 854.099 181.328 860.227 178.178C866.356 175.027 870.331 173.452 872.153 173.452C875.631 173.452 878.53 175.11 880.849 178.427C883.168 181.577 884.327 184.644 884.327 187.629C884.327 192.272 880.103 196.914 871.656 201.557C863.374 206.034 853.022 208.272 840.6 208.272C822.877 208.272 808.384 203.63 797.121 194.344C786.024 184.893 780.475 172.54 780.475 157.286ZM812.525 136.394H848.799C851.449 136.394 853.271 135.979 854.265 135.15C855.424 134.155 856.004 132.331 856.004 129.678C856.004 123.875 853.851 119.149 849.544 115.502C845.403 111.854 840.269 110.03 834.14 110.03C828.343 110.03 823.291 111.854 818.985 115.502C814.678 118.984 812.525 123.626 812.525 129.43V136.394Z" fill="white"/>
<path d="M904.545 202.552C901.398 199.236 899.824 195.256 899.824 190.614C899.824 185.971 901.398 181.991 904.545 178.675C907.857 175.359 911.915 173.701 916.719 173.701C921.191 173.701 925.083 175.359 928.396 178.675C931.709 181.991 933.365 185.971 933.365 190.614C933.365 195.09 931.709 199.07 928.396 202.552C925.083 205.868 921.191 207.526 916.719 207.526C911.915 207.526 907.857 205.868 904.545 202.552Z" fill="white"/>
<path d="M953.093 195.837V28.9486C953.093 25.964 954.501 23.5598 957.317 21.7359C960.299 19.912 964.108 19 968.746 19C973.384 19 977.276 19.912 980.423 21.7359C983.57 23.5598 985.144 25.964 985.144 28.9486V133.16L1031.85 89.1377C1033.84 87.4796 1035.99 86.6506 1038.31 86.6506C1041.79 86.6506 1045.27 88.3087 1048.75 91.6249C1052.23 94.9411 1053.96 98.4231 1053.96 102.071C1053.96 104.226 1053.05 106.216 1051.23 108.04L1021.91 134.653L1058.44 186.883C1059.6 188.541 1060.18 190.282 1060.18 192.106C1060.18 195.754 1058.11 199.319 1053.96 202.801C1049.99 206.283 1046.01 208.024 1042.04 208.024C1038.73 208.024 1036.08 206.614 1034.09 203.795L1000.55 154.301L985.144 168.478V195.837C985.144 198.324 983.487 200.645 980.175 202.801C976.862 204.956 973.052 206.034 968.746 206.034C964.274 206.034 960.547 205.039 957.566 203.049C954.584 200.894 953.093 198.49 953.093 195.837Z" fill="white"/>
<path d="M1066.43 225.931C1066.43 214.49 1072.48 205.702 1084.57 199.567C1077.61 196.251 1074.14 190.945 1074.14 183.65C1074.14 176.354 1078.36 169.887 1086.81 164.25C1076.54 156.291 1071.4 145.762 1071.4 132.663V127.44C1071.4 115.336 1075.87 105.47 1084.82 97.8428C1093.76 90.2155 1105.44 86.4018 1119.85 86.4018C1130.78 86.4018 1140.22 88.8061 1148.17 93.6146C1153.14 82.3395 1158.19 76.702 1163.33 76.702C1167.14 76.702 1170.2 77.7797 1172.52 79.9353C1174.84 82.0908 1176 84.3292 1176 86.6506C1176 89.3035 1174.67 91.6249 1172.02 93.6146C1165.9 97.9257 1162 101.076 1160.35 103.066C1166.14 109.864 1169.04 117.989 1169.04 127.44V132.663C1169.04 144.601 1164.41 154.55 1155.13 162.509C1146.02 170.302 1134.26 174.198 1119.85 174.198C1113.89 174.198 1108.5 173.452 1103.7 171.96C1101.71 173.618 1100.72 175.276 1100.72 176.934C1100.72 179.753 1103.29 181.826 1108.42 183.152C1113.56 184.479 1119.77 185.639 1127.06 186.634C1134.51 187.463 1141.88 188.79 1149.17 190.614C1156.46 192.272 1162.67 195.754 1167.8 201.06C1172.94 206.366 1175.5 213.33 1175.5 221.952C1175.5 234.885 1170.29 244.585 1159.85 251.051C1149.42 257.684 1136.58 261 1121.34 261C1105.94 261 1092.93 257.85 1082.33 251.549C1071.73 245.248 1066.43 236.709 1066.43 225.931ZM1096.74 222.698C1096.74 228.17 1099.06 232.481 1103.7 235.631C1108.34 238.781 1114.05 240.357 1120.84 240.357C1127.63 240.357 1133.27 238.781 1137.74 235.631C1142.21 232.481 1144.45 228.252 1144.45 222.947C1144.45 220.625 1144.03 218.553 1143.2 216.729C1142.38 215.071 1140.89 213.661 1138.73 212.501C1136.74 211.34 1134.92 210.345 1133.27 209.516C1131.78 208.853 1129.29 208.189 1125.81 207.526C1122.33 207.029 1119.77 206.697 1118.11 206.531C1116.62 206.366 1113.97 206.034 1110.16 205.536C1101.22 209.682 1096.74 215.402 1096.74 222.698ZM1102.46 132.414C1102.46 138.881 1104.03 144.27 1107.18 148.581C1110.33 152.726 1114.72 154.799 1120.35 154.799C1125.81 154.799 1130.12 152.809 1133.27 148.829C1136.41 144.684 1137.99 139.295 1137.99 132.663V127.44C1137.99 121.305 1136.33 116.165 1133.02 112.02C1129.87 107.874 1125.56 105.802 1120.1 105.802C1114.63 105.802 1110.33 107.874 1107.18 112.02C1104.03 115.999 1102.46 121.139 1102.46 127.44V132.414Z" fill="white"/>
<path fill-rule="evenodd" clip-rule="evenodd" d="M13.7573 110.604C9.88255 110.604 6.02791 108.965 3.31269 105.776C-1.63264 99.9781 -0.963868 91.2511 4.80232 86.2788L27.5686 66.6576V33.6372C27.5686 26.0069 33.7252 19.8138 41.3169 19.8138C48.9114 19.8138 55.068 26.0069 55.068 33.6372V42.9558L101.051 3.32677C106.2 -1.10892 113.798 -1.10892 118.947 3.32677L215.199 86.2788C220.962 91.2511 221.634 99.9781 216.688 105.776C211.746 111.571 203.066 112.243 197.3 107.274L192.432 103.075V192.177C192.432 199.807 186.273 206 178.681 206H41.3198C33.7252 206 27.5716 199.807 27.5716 192.177V103.075L22.6979 107.274C20.1062 109.507 16.9231 110.604 13.7573 110.604ZM164.93 178.35V79.3728L110 32.0355L55.0679 79.3728V178.35H164.93Z" fill="white"/>
</svg>
