<svg width="16" height="16" viewBox="0 0 16 16" fill="none" xmlns="http://www.w3.org/2000/svg">
<path fill-rule="evenodd" clip-rule="evenodd" d="M5.00257 0.754502C5.19611 0.643912 5.43211 0.637361 5.63148 0.737046L10.6457 3.24415L15.0026 0.754502C15.2089 0.636596 15.4624 0.637443 15.668 0.756724C15.8735 0.876006 16 1.09568 16 1.33333V12C16 12.2392 15.8718 12.4601 15.6641 12.5788L10.9974 15.2455C10.8039 15.3561 10.5679 15.3626 10.3685 15.2629L5.35431 12.7558L0.997426 15.2455C0.791091 15.3634 0.537592 15.3626 0.332049 15.2433C0.126506 15.124 0 14.9043 0 14.6667V4C0 3.76076 0.128191 3.53986 0.335907 3.42117L5.00257 0.754502ZM5.35431 2.08918L1.33333 4.38688V13.5179L5.00257 11.4212C5.19611 11.3106 5.43211 11.304 5.63148 11.4037L10.6457 13.9108L14.6667 11.6131V2.48212L10.9974 4.57883C10.8039 4.68942 10.5679 4.69597 10.3685 4.59628L5.35431 2.08918Z" fill="black"/>
<path fill-rule="evenodd" clip-rule="evenodd" d="M5.33335 0.666664C5.70154 0.666664 6.00002 0.965141 6.00002 1.33333V12C6.00002 12.3682 5.70154 12.6667 5.33335 12.6667C4.96516 12.6667 4.66669 12.3682 4.66669 12V1.33333C4.66669 0.965141 4.96516 0.666664 5.33335 0.666664Z" fill="black"/>
<path fill-rule="evenodd" clip-rule="evenodd" d="M10.6667 3.33334C11.0349 3.33334 11.3333 3.63181 11.3333 4V14.6667C11.3333 15.0349 11.0349 15.3333 10.6667 15.3333C10.2985 15.3333 10 15.0349 10 14.6667V4C10 3.63181 10.2985 3.33334 10.6667 3.33334Z" fill="black"/>
</svg>
