<svg width="16" height="16" viewBox="0 0 16 16" fill="none" xmlns="http://www.w3.org/2000/svg">
<path fill-rule="evenodd" clip-rule="evenodd" d="M7.33337 2.66667C4.75605 2.66667 2.66671 4.75601 2.66671 7.33334C2.66671 9.91067 4.75605 12 7.33337 12C9.9107 12 12 9.91067 12 7.33334C12 4.75601 9.9107 2.66667 7.33337 2.66667ZM1.33337 7.33334C1.33337 4.01963 4.01967 1.33334 7.33337 1.33334C10.6471 1.33334 13.3334 4.01963 13.3334 7.33334C13.3334 10.647 10.6471 13.3333 7.33337 13.3333C4.01967 13.3333 1.33337 10.647 1.33337 7.33334Z" fill="white"/>
<path fill-rule="evenodd" clip-rule="evenodd" d="M10.6286 10.6286C10.889 10.3682 11.3111 10.3682 11.5714 10.6286L14.4714 13.5286C14.7318 13.7889 14.7318 14.2111 14.4714 14.4714C14.2111 14.7318 13.789 14.7318 13.5286 14.4714L10.6286 11.5714C10.3683 11.3111 10.3683 10.8889 10.6286 10.6286Z" fill="white"/>
</svg>
